<?xml version="1.0" standalone="no"?>
<!DOCTYPE svg PUBLIC "-//W3C//DTD SVG 20010904//EN"
 "http://www.w3.org/TR/2001/REC-SVG-20010904/DTD/svg10.dtd">
<svg version="1.0" xmlns="http://www.w3.org/2000/svg"
 width="800.000000pt" height="800.000000pt" viewBox="0 0 800.000000 800.000000"
 preserveAspectRatio="xMidYMid meet">

<g transform="translate(0.000000,800.000000) scale(0.100000,-0.100000)"
fill="#000000" stroke="none">
<path d="M1330 7484 c-368 -67 -657 -315 -779 -671 -53 -155 -51 -92 -51
-2063 0 -1584 2 -1839 15 -1914 70 -400 369 -717 765 -812 70 -17 161 -18
1273 -21 l1197 -3 0 250 0 250 -1150 0 c-810 0 -1165 3 -1202 11 -140 30 -283
138 -341 259 -60 126 -57 7 -57 1977 0 1277 3 1817 11 1855 29 137 140 284
259 341 127 61 -67 57 2730 57 2262 0 2563 -2 2615 -15 189 -49 336 -199 374
-383 8 -38 11 -578 11 -1855 0 -1970 3 -1851 -57 -1977 -31 -64 -139 -178
-198 -207 -120 -61 -66 -58 -944 -63 l-804 -5 -494 -865 c-272 -476 -495 -869
-496 -873 -2 -8 424 -260 429 -254 1 1 194 338 428 749 l427 747 677 4 c755 4
743 3 912 75 167 71 288 161 395 294 109 137 180 295 210 464 23 131 23 3697
0 3828 -65 372 -319 668 -675 785 -164 54 -27 51 -2820 50 -2133 -1 -2598 -4
-2660 -15z"/>
<path d="M2880 5984 c-95 -25 -161 -64 -230 -133 -200 -202 -200 -503 -1 -701
201 -200 501 -200 702 0 127 126 175 294 134 469 -63 264 -344 434 -605 365z"/>
<path d="M4880 5984 c-95 -25 -161 -64 -230 -133 -200 -202 -200 -503 -1 -701
201 -200 501 -200 702 0 127 126 175 294 134 469 -63 264 -344 434 -605 365z"/>
<path d="M2755 4174 c-110 -74 -201 -138 -203 -144 -6 -18 113 -166 223 -275
138 -138 261 -226 440 -315 374 -186 744 -234 1153 -150 141 29 263 73 417
150 179 89 302 177 440 315 102 101 225 251 225 273 0 5 -92 70 -205 145
l-204 137 -33 -48 c-102 -150 -351 -347 -519 -412 -342 -132 -636 -132 -978 0
-166 64 -387 236 -503 393 -28 37 -51 67 -52 66 0 0 -91 -61 -201 -135z"/>
</g>
</svg>
